<?xml version="1.0" encoding="UTF-8" standalone="no"?>
<!DOCTYPE svg PUBLIC "-//W3C//DTD SVG 1.1//EN" "http://www.w3.org/Graphics/SVG/1.1/DTD/svg11.dtd">
<svg width="100%" height="100%" viewBox="0 0 1590 614" version="1.1" xmlns="http://www.w3.org/2000/svg" xmlns:xlink="http://www.w3.org/1999/xlink" xml:space="preserve" xmlns:serif="http://www.serif.com/" style="fill-rule:evenodd;clip-rule:evenodd;stroke-linejoin:round;stroke-miterlimit:2;">
    <g transform="matrix(4.16667,0,0,4.16667,-3293.73,-1431.17)">
        <path d="M943.61,413.617L951.244,413.617L951.244,394.297C951.244,391.357 951.852,389.117 953.068,387.577C954.284,386.107 956.04,385.337 958.404,385.337C960.701,385.337 962.457,386.107 963.606,387.577C964.754,389.047 965.294,391.287 965.294,394.227L965.294,413.617L972.928,413.617L972.928,393.177C972.928,389.887 972.387,387.087 971.374,384.847C970.361,382.677 968.875,380.997 966.983,379.807C965.024,378.687 962.728,378.127 960.093,378.127C958.269,378.127 956.648,378.477 955.094,379.177C953.541,379.877 952.19,380.857 951.041,382.047L950.501,378.617L943.61,378.617L943.61,413.617Z" style="fill:rgb(0,84,118);fill-rule:nonzero;"/>
    </g>
    <g transform="matrix(4.16667,0,0,4.16667,-3293.73,-1431.17)">
        <path d="M1005.76,411.658C1008.39,410.048 1010.42,407.878 1011.77,405.078L1005.08,402.768C1004.47,404.098 1003.46,405.148 1001.98,405.918C1000.42,406.688 998.732,407.108 996.841,407.108C995.287,407.108 993.868,406.758 992.652,406.128C991.437,405.498 990.423,404.518 989.68,403.328C988.87,402.138 988.329,400.738 988.126,399.128L1012.18,399.128C1012.24,398.428 1012.31,397.728 1012.38,397.098C1012.45,396.468 1012.45,395.908 1012.45,395.348C1012.45,391.918 1011.77,388.908 1010.42,386.318C1009,383.728 1007.11,381.768 1004.68,380.298C1002.25,378.828 999.408,378.128 996.233,378.128C993.058,378.128 990.288,378.898 987.789,380.438C985.289,381.978 983.398,384.078 981.979,386.738C980.561,389.398 979.885,392.408 979.885,395.838C979.885,399.408 980.628,402.628 982.047,405.358C983.465,408.088 985.424,410.258 987.991,411.798C990.491,413.338 993.463,414.108 996.841,414.108C1000.15,414.108 1003.12,413.268 1005.76,411.658ZM988.262,392.688C988.464,391.148 989.005,389.818 989.815,388.628C990.558,387.508 991.504,386.598 992.652,385.968C993.801,385.338 994.949,384.988 996.233,384.988C997.651,384.988 999.002,385.338 1000.15,385.968C1001.3,386.668 1002.25,387.578 1002.99,388.768C1003.73,389.958 1004.07,391.218 1004.14,392.688L988.262,392.688Z" style="fill:rgb(0,84,118);fill-rule:nonzero;"/>
    </g>
    <g transform="matrix(4.16667,0,0,4.16667,-3293.73,-1431.17)">
        <path d="M1016.5,378.618L1016.5,385.548L1021.23,385.548L1021.23,401.088C1021.23,403.958 1021.7,406.338 1022.58,408.088C1023.46,409.838 1024.67,411.168 1026.16,412.078C1027.64,412.988 1029.33,413.548 1031.22,413.688C1033.05,413.898 1034.94,413.758 1036.9,413.338L1036.9,406.618C1035.62,406.828 1034.4,406.828 1033.18,406.758C1031.9,406.688 1030.89,406.268 1030.14,405.428C1029.4,404.658 1029,403.188 1029,401.088L1029,385.548L1036.9,385.548L1036.9,378.618L1029,378.618L1029,368.818L1021.23,368.818L1021.23,378.618L1016.5,378.618Z" style="fill:rgb(0,84,118);fill-rule:nonzero;"/>
    </g>
    <g transform="matrix(4.16667,0,0,4.16667,-3293.73,-1431.17)">
        <path d="M1041.96,404.657C1042.84,407.947 1044.46,410.397 1046.83,411.867C1049.19,413.337 1052.09,414.107 1055.4,414.107C1058.31,414.107 1060.81,413.617 1062.9,412.637C1065,411.727 1066.55,410.397 1067.7,408.717C1068.85,407.107 1069.39,405.287 1069.39,403.257C1069.32,401.367 1068.91,399.827 1068.24,398.637C1067.5,397.447 1066.55,396.467 1065.4,395.697C1064.19,394.927 1062.9,394.297 1061.48,393.807C1060.07,393.317 1058.58,392.897 1057.16,392.477C1056.28,392.197 1055.4,391.917 1054.59,391.707C1053.78,391.497 1053.11,391.287 1052.5,391.007C1051.89,390.797 1051.49,390.447 1051.15,390.027C1050.81,389.607 1050.61,389.117 1050.61,388.557C1050.61,387.437 1051.08,386.597 1052.09,385.967C1053.11,385.337 1054.32,385.057 1055.74,385.057C1056.62,385.057 1057.43,385.127 1058.31,385.337C1059.12,385.547 1059.86,385.897 1060.47,386.387C1061.08,386.877 1061.48,387.437 1061.82,388.067L1068.51,385.827C1067.5,383.307 1065.94,381.417 1063.71,380.087C1061.48,378.757 1058.92,378.127 1055.88,378.127C1053.38,378.127 1051.08,378.547 1049.06,379.457C1047.03,380.367 1045.41,381.557 1044.26,383.167C1043.11,384.777 1042.5,386.737 1042.5,388.907C1042.5,390.657 1042.91,392.057 1043.65,393.247C1044.39,394.437 1045.41,395.347 1046.62,396.117C1047.84,396.887 1049.12,397.447 1050.54,397.867C1051.89,398.287 1053.17,398.637 1054.39,398.987C1055.54,399.337 1056.62,399.617 1057.7,399.897C1058.71,400.247 1059.59,400.667 1060.27,401.157C1060.94,401.647 1061.28,402.417 1061.28,403.327C1061.28,404.447 1060.81,405.357 1059.8,406.057C1058.78,406.827 1057.36,407.177 1055.61,407.177C1054.73,407.177 1053.85,407.037 1052.9,406.757C1051.96,406.547 1051.08,406.057 1050.34,405.357C1049.53,404.657 1048.99,403.677 1048.65,402.347L1041.96,404.657Z" style="fill:rgb(0,172,213);fill-rule:nonzero;"/>
    </g>
    <g transform="matrix(4.16667,0,0,4.16667,-3293.73,-1431.17)">
        <path d="M1074.32,378.618L1074.32,385.548L1079.05,385.548L1079.05,401.088C1079.05,403.958 1079.52,406.338 1080.4,408.088C1081.28,409.838 1082.49,411.168 1083.98,412.078C1085.46,412.988 1087.15,413.548 1089.04,413.688C1090.87,413.898 1092.76,413.758 1094.72,413.338L1094.72,406.618C1093.43,406.828 1092.22,406.828 1091,406.758C1089.72,406.688 1088.71,406.268 1087.96,405.428C1087.22,404.658 1086.82,403.188 1086.82,401.088L1086.82,385.548L1094.72,385.548L1094.72,378.618L1086.82,378.618L1086.82,368.817L1079.05,368.817L1079.05,378.618L1074.32,378.618Z" style="fill:rgb(0,172,213);fill-rule:nonzero;"/>
    </g>
    <g transform="matrix(4.16667,0,0,4.16667,-3293.73,-1431.17)">
        <path d="M1102.69,413.618L1110.32,413.618L1110.32,378.618L1102.69,378.618L1102.69,413.618ZM1109.99,371.828C1110.93,370.848 1111.4,369.658 1111.4,368.328C1111.4,366.858 1110.93,365.668 1109.99,364.688C1109.04,363.708 1107.89,363.218 1106.54,363.218C1105.12,363.218 1103.97,363.708 1103.03,364.688C1102.08,365.668 1101.61,366.858 1101.61,368.328C1101.61,369.658 1102.08,370.848 1103.03,371.828C1103.97,372.808 1105.12,373.298 1106.54,373.298C1107.89,373.298 1109.04,372.808 1109.99,371.828Z" style="fill:rgb(0,172,213);fill-rule:nonzero;"/>
    </g>
    <g transform="matrix(4.16667,0,0,4.16667,-3293.73,-1431.17)">
        <path d="M1120.73,413.618L1128.36,413.618L1128.36,394.298C1128.36,391.358 1128.97,389.118 1130.18,387.578C1131.4,386.108 1133.15,385.338 1135.52,385.338C1137.82,385.338 1139.5,386.108 1140.65,387.578C1141.73,389.048 1142.27,391.288 1142.27,394.228L1142.27,413.618L1149.91,413.618L1149.91,394.368C1149.91,391.358 1150.58,389.118 1151.87,387.578C1153.15,386.108 1154.97,385.338 1157.34,385.338C1159.63,385.338 1161.39,386.108 1162.61,387.578C1163.76,389.048 1164.36,391.288 1164.36,394.228L1164.36,413.618L1172.06,413.618L1172.06,393.178C1172.06,389.888 1171.52,387.088 1170.44,384.848C1169.36,382.678 1167.88,380.998 1165.92,379.808C1163.96,378.688 1161.59,378.128 1158.96,378.128C1156.6,378.128 1154.43,378.618 1152.41,379.528C1150.38,380.508 1148.76,381.908 1147.61,383.728C1146.46,381.908 1145.04,380.508 1143.22,379.528C1141.4,378.618 1139.37,378.128 1137.14,378.128C1135.32,378.128 1133.69,378.478 1132.14,379.108C1130.59,379.808 1129.3,380.718 1128.16,381.908L1127.62,378.618L1120.73,378.618L1120.73,413.618Z" style="fill:rgb(0,172,213);fill-rule:nonzero;"/>
    </g>
    <g transform="matrix(4.16667,0,0,4.16667,-3293.73,-1431.17)">
        <rect x="945.712" y="429.532" width="2.871" height="17.5" style="fill:rgb(0,172,213);fill-rule:nonzero;"/>
    </g>
    <g transform="matrix(4.16667,0,0,4.16667,-3293.73,-1431.17)">
        <path d="M951.984,447.032L954.71,447.032L954.71,440.132C954.71,439.082 954.928,438.282 955.362,437.732C955.796,437.207 956.423,436.932 957.268,436.932C958.088,436.932 958.715,437.207 959.125,437.732C959.536,438.257 959.729,439.057 959.729,440.107L959.729,447.032L962.455,447.032L962.455,439.732C962.455,438.557 962.262,437.557 961.9,436.757C961.538,435.982 961.007,435.382 960.332,434.957C959.632,434.557 958.812,434.357 957.871,434.357C957.22,434.357 956.641,434.482 956.086,434.732C955.531,434.982 955.048,435.332 954.638,435.757L954.445,434.532L951.984,434.532L951.984,447.032Z" style="fill:rgb(0,172,213);fill-rule:nonzero;"/>
    </g>
    <g transform="matrix(4.16667,0,0,4.16667,-3293.73,-1431.17)">
        <path d="M964.819,443.832C965.133,445.007 965.712,445.882 966.556,446.407C967.4,446.932 968.438,447.207 969.62,447.207C970.657,447.207 971.55,447.032 972.298,446.682C973.046,446.357 973.601,445.882 974.011,445.282C974.421,444.707 974.614,444.057 974.614,443.332C974.59,442.657 974.445,442.107 974.204,441.682C973.938,441.257 973.601,440.907 973.191,440.632C972.756,440.357 972.298,440.132 971.791,439.957C971.285,439.782 970.754,439.632 970.247,439.482C969.934,439.382 969.62,439.282 969.331,439.207C969.041,439.132 968.8,439.057 968.583,438.957C968.366,438.882 968.221,438.757 968.1,438.607C967.979,438.457 967.907,438.282 967.907,438.082C967.907,437.682 968.076,437.382 968.438,437.157C968.8,436.932 969.234,436.832 969.741,436.832C970.054,436.832 970.344,436.857 970.657,436.932C970.947,437.007 971.212,437.132 971.429,437.307C971.647,437.482 971.791,437.682 971.912,437.907L974.3,437.107C973.938,436.207 973.384,435.532 972.587,435.057C971.791,434.582 970.875,434.357 969.789,434.357C968.896,434.357 968.076,434.507 967.352,434.832C966.628,435.157 966.049,435.582 965.639,436.157C965.229,436.732 965.012,437.432 965.012,438.207C965.012,438.832 965.157,439.332 965.422,439.757C965.688,440.182 966.049,440.507 966.484,440.782C966.918,441.057 967.376,441.257 967.883,441.407C968.366,441.557 968.824,441.682 969.258,441.807C969.668,441.932 970.054,442.032 970.44,442.132C970.802,442.257 971.116,442.407 971.357,442.582C971.598,442.757 971.719,443.032 971.719,443.357C971.719,443.757 971.55,444.082 971.188,444.332C970.826,444.607 970.32,444.732 969.692,444.732C969.379,444.732 969.065,444.682 968.727,444.582C968.39,444.507 968.076,444.332 967.811,444.082C967.521,443.832 967.328,443.482 967.207,443.007L964.819,443.832Z" style="fill:rgb(0,172,213);fill-rule:nonzero;"/>
    </g>
    <g transform="matrix(4.16667,0,0,4.16667,-3293.73,-1431.17)">
        <path d="M976.255,434.532L976.255,437.007L977.943,437.007L977.943,442.557C977.943,443.582 978.112,444.432 978.426,445.057C978.739,445.682 979.174,446.157 979.704,446.482C980.235,446.807 980.838,447.007 981.514,447.057C982.165,447.132 982.841,447.082 983.54,446.932L983.54,444.532C983.082,444.607 982.648,444.607 982.214,444.582C981.755,444.557 981.393,444.407 981.128,444.107C980.863,443.832 980.718,443.307 980.718,442.557L980.718,437.007L983.54,437.007L983.54,434.532L980.718,434.532L980.718,431.032L977.943,431.032L977.943,434.532L976.255,434.532Z" style="fill:rgb(0,172,213);fill-rule:nonzero;"/>
    </g>
    <g transform="matrix(4.16667,0,0,4.16667,-3293.73,-1431.17)">
        <path d="M986.267,447.032L988.993,447.032L988.993,434.532L986.267,434.532L986.267,447.032ZM988.872,432.107C989.21,431.757 989.379,431.332 989.379,430.857C989.379,430.332 989.21,429.907 988.872,429.557C988.534,429.207 988.124,429.032 987.642,429.032C987.135,429.032 986.725,429.207 986.387,429.557C986.05,429.907 985.881,430.332 985.881,430.857C985.881,431.332 986.05,431.757 986.387,432.107C986.725,432.457 987.135,432.632 987.642,432.632C988.124,432.632 988.534,432.457 988.872,432.107Z" style="fill:rgb(0,172,213);fill-rule:nonzero;"/>
    </g>
    <g transform="matrix(4.16667,0,0,4.16667,-3293.73,-1431.17)">
        <path d="M991.671,434.532L991.671,437.007L993.36,437.007L993.36,442.557C993.36,443.582 993.528,444.432 993.842,445.057C994.156,445.682 994.59,446.157 995.121,446.482C995.651,446.807 996.255,447.007 996.93,447.057C997.581,447.132 998.257,447.082 998.957,446.932L998.957,444.532C998.498,444.607 998.064,444.607 997.63,444.582C997.171,444.557 996.809,444.407 996.544,444.107C996.279,443.832 996.134,443.307 996.134,442.557L996.134,437.007L998.957,437.007L998.957,434.532L996.134,434.532L996.134,431.032L993.36,431.032L993.36,434.532L991.671,434.532Z" style="fill:rgb(0,172,213);fill-rule:nonzero;"/>
    </g>
    <g transform="matrix(4.16667,0,0,4.16667,-3293.73,-1431.17)">
        <path d="M1011.62,434.532L1008.9,434.532L1008.9,441.432C1008.9,442.507 1008.68,443.307 1008.22,443.832C1007.76,444.382 1007.11,444.657 1006.32,444.657C1005.47,444.657 1004.87,444.382 1004.46,443.832C1004.05,443.307 1003.85,442.507 1003.85,441.482L1003.85,434.532L1001.13,434.532L1001.13,441.857C1001.13,443.032 1001.32,444.007 1001.68,444.782C1002.05,445.582 1002.58,446.182 1003.27,446.582C1003.95,447.007 1004.77,447.207 1005.71,447.207C1006.34,447.207 1006.94,447.082 1007.5,446.832C1008.05,446.582 1008.53,446.232 1008.95,445.782L1009.11,447.032L1011.62,447.032L1011.62,434.532Z" style="fill:rgb(0,172,213);fill-rule:nonzero;"/>
    </g>
    <g transform="matrix(4.16667,0,0,4.16667,-3293.73,-1431.17)">
        <path d="M1013.89,434.532L1013.89,437.007L1015.58,437.007L1015.58,442.557C1015.58,443.582 1015.75,444.432 1016.06,445.057C1016.38,445.682 1016.81,446.157 1017.34,446.482C1017.87,446.807 1018.47,447.007 1019.15,447.057C1019.8,447.132 1020.48,447.082 1021.18,446.932L1021.18,444.532C1020.72,444.607 1020.28,444.607 1019.85,444.582C1019.39,444.557 1019.03,444.407 1018.76,444.107C1018.5,443.832 1018.35,443.307 1018.35,442.557L1018.35,437.007L1021.18,437.007L1021.18,434.532L1018.35,434.532L1018.35,431.032L1015.58,431.032L1015.58,434.532L1013.89,434.532Z" style="fill:rgb(0,172,213);fill-rule:nonzero;"/>
    </g>
    <g transform="matrix(4.16667,0,0,4.16667,-3293.73,-1431.17)">
        <path d="M1030.82,434.532L1029.35,434.532L1029.35,437.007L1030.82,437.007L1030.82,447.032L1033.55,447.032L1033.55,437.007L1035.72,437.007L1035.72,434.532L1033.55,434.532L1033.55,433.282C1033.55,432.607 1033.69,432.132 1034.01,431.807C1034.3,431.507 1034.83,431.407 1035.57,431.482L1035.57,429.032C1034.46,428.907 1033.57,429.007 1032.87,429.307C1032.17,429.607 1031.64,430.082 1031.33,430.732C1030.99,431.407 1030.82,432.232 1030.82,433.257L1030.82,434.532Z" style="fill:rgb(0,172,213);fill-rule:nonzero;"/>
    </g>
    <g transform="matrix(4.16667,0,0,4.16667,-3293.73,-1431.17)">
        <path d="M1042.06,432.382C1042.33,432.132 1042.45,431.807 1042.45,431.407C1042.45,431.032 1042.33,430.732 1042.06,430.457C1041.8,430.182 1041.48,430.057 1041.12,430.057C1040.76,430.057 1040.45,430.182 1040.21,430.457C1039.94,430.732 1039.82,431.032 1039.82,431.407C1039.82,431.807 1039.94,432.132 1040.21,432.382C1040.45,432.657 1040.76,432.782 1041.12,432.782C1041.48,432.782 1041.8,432.657 1042.06,432.382ZM1045.78,432.382C1046.04,432.132 1046.16,431.807 1046.16,431.407C1046.16,431.032 1046.04,430.732 1045.78,430.457C1045.51,430.182 1045.2,430.057 1044.84,430.057C1044.48,430.057 1044.19,430.182 1043.94,430.457C1043.68,430.732 1043.56,431.032 1043.56,431.407C1043.56,431.807 1043.68,432.132 1043.94,432.382C1044.19,432.657 1044.48,432.782 1044.84,432.782C1045.2,432.782 1045.51,432.657 1045.78,432.382ZM1048.41,434.532L1045.68,434.532L1045.68,441.432C1045.68,442.507 1045.46,443.307 1045.01,443.832C1044.55,444.382 1043.9,444.657 1043.1,444.657C1042.26,444.657 1041.65,444.382 1041.24,443.832C1040.83,443.307 1040.64,442.507 1040.64,441.482L1040.64,434.532L1037.91,434.532L1037.91,441.857C1037.91,443.032 1038.11,444.007 1038.47,444.782C1038.83,445.582 1039.36,446.182 1040.06,446.582C1040.74,447.007 1041.56,447.207 1042.5,447.207C1043.12,447.207 1043.73,447.082 1044.28,446.832C1044.84,446.582 1045.32,446.232 1045.73,445.782L1045.9,447.032L1048.41,447.032L1048.41,434.532Z" style="fill:rgb(0,172,213);fill-rule:nonzero;"/>
    </g>
    <g transform="matrix(4.16667,0,0,4.16667,-3293.73,-1431.17)">
        <path d="M1051.59,447.032L1054.32,447.032L1054.32,440.732C1054.32,439.957 1054.44,439.307 1054.7,438.782C1054.97,438.257 1055.28,437.857 1055.69,437.557C1056.1,437.282 1056.54,437.082 1057.02,437.007C1057.48,436.932 1057.94,436.982 1058.35,437.132L1058.35,434.532C1057.84,434.407 1057.34,434.382 1056.83,434.482C1056.32,434.582 1055.84,434.757 1055.4,435.032C1054.97,435.307 1054.59,435.657 1054.27,436.082L1054.05,434.532L1051.59,434.532L1051.59,447.032Z" style="fill:rgb(0,172,213);fill-rule:nonzero;"/>
    </g>
    <g transform="matrix(4.16667,0,0,4.16667,-3293.73,-1431.17)">
        <path d="M956.52,455.532L956.52,468.307L948.655,455.532L945.712,455.532L945.712,473.032L948.583,473.032L948.583,460.207L956.448,473.032L959.367,473.032L959.367,455.532L956.52,455.532Z" style="fill:rgb(0,172,213);fill-rule:nonzero;"/>
    </g>
    <g transform="matrix(4.16667,0,0,4.16667,-3293.73,-1431.17)">
        <path d="M971.357,472.333C972.298,471.758 973.022,470.983 973.504,469.983L971.116,469.158C970.898,469.633 970.537,470.008 970.006,470.283C969.451,470.558 968.848,470.708 968.172,470.708C967.617,470.708 967.111,470.583 966.677,470.358C966.242,470.133 965.88,469.783 965.615,469.358C965.325,468.933 965.132,468.433 965.06,467.858L973.649,467.858C973.673,467.608 973.697,467.358 973.721,467.133C973.745,466.908 973.745,466.708 973.745,466.508C973.745,465.283 973.504,464.208 973.022,463.283C972.515,462.358 971.839,461.658 970.971,461.133C970.102,460.608 969.089,460.358 967.955,460.358C966.821,460.358 965.832,460.633 964.939,461.183C964.047,461.733 963.371,462.483 962.865,463.433C962.358,464.383 962.117,465.458 962.117,466.683C962.117,467.958 962.382,469.108 962.889,470.083C963.395,471.058 964.095,471.833 965.012,472.383C965.905,472.933 966.966,473.208 968.172,473.208C969.354,473.208 970.416,472.908 971.357,472.333ZM965.108,465.558C965.181,465.008 965.374,464.533 965.663,464.108C965.929,463.708 966.266,463.383 966.677,463.158C967.087,462.933 967.497,462.808 967.955,462.808C968.462,462.808 968.944,462.933 969.354,463.158C969.765,463.408 970.102,463.733 970.368,464.158C970.633,464.583 970.754,465.033 970.778,465.558L965.108,465.558Z" style="fill:rgb(0,172,213);fill-rule:nonzero;"/>
    </g>
    <g transform="matrix(4.16667,0,0,4.16667,-3293.73,-1431.17)">
        <path d="M975.073,460.533L975.073,463.008L976.761,463.008L976.761,468.558C976.761,469.583 976.93,470.433 977.244,471.058C977.558,471.683 977.992,472.158 978.523,472.483C979.053,472.808 979.657,473.008 980.332,473.058C980.983,473.133 981.659,473.083 982.359,472.933L982.359,470.533C981.9,470.608 981.466,470.608 981.032,470.583C980.573,470.558 980.211,470.408 979.946,470.108C979.681,469.833 979.536,469.308 979.536,468.558L979.536,463.008L982.359,463.008L982.359,460.533L979.536,460.533L979.536,457.033L976.761,457.033L976.761,460.533L975.073,460.533Z" style="fill:rgb(0,172,213);fill-rule:nonzero;"/>
    </g>
    <g transform="matrix(4.16667,0,0,4.16667,-3293.73,-1431.17)">
        <path d="M993.601,460.533L984.144,460.533L984.144,463.008L990.199,463.008L984.144,470.808L984.144,473.033L993.601,473.033L993.601,470.558L987.569,470.558L993.601,462.758L993.601,460.533Z" style="fill:rgb(0,172,213);fill-rule:nonzero;"/>
    </g>
    <g transform="matrix(4.16667,0,0,4.16667,-3293.73,-1431.17)">
        <path d="M1003.83,464.583L1006.02,473.033L1008.75,473.033L1012.44,460.533L1009.72,460.533L1007.47,469.658L1005.23,460.533L1002.58,460.533L1000.24,469.683L997.967,460.533L995.193,460.533L998.908,473.033L1001.59,473.033L1003.83,464.583Z" style="fill:rgb(0,172,213);fill-rule:nonzero;"/>
    </g>
    <g transform="matrix(4.16667,0,0,4.16667,-3293.73,-1431.17)">
        <path d="M1022.91,472.333C1023.85,471.758 1024.58,470.983 1025.06,469.983L1022.67,469.158C1022.46,469.633 1022.09,470.008 1021.56,470.283C1021.01,470.558 1020.4,470.708 1019.73,470.708C1019.17,470.708 1018.67,470.583 1018.23,470.358C1017.8,470.133 1017.44,469.783 1017.17,469.358C1016.88,468.933 1016.69,468.433 1016.62,467.858L1025.2,467.858C1025.23,467.608 1025.25,467.358 1025.28,467.133C1025.3,466.908 1025.3,466.708 1025.3,466.508C1025.3,465.283 1025.06,464.208 1024.58,463.283C1024.07,462.358 1023.4,461.658 1022.53,461.133C1021.66,460.608 1020.64,460.358 1019.51,460.358C1018.38,460.358 1017.39,460.633 1016.5,461.183C1015.6,461.733 1014.93,462.483 1014.42,463.433C1013.91,464.383 1013.67,465.458 1013.67,466.683C1013.67,467.958 1013.94,469.108 1014.45,470.083C1014.95,471.058 1015.65,471.833 1016.57,472.383C1017.46,472.933 1018.52,473.208 1019.73,473.208C1020.91,473.208 1021.97,472.908 1022.91,472.333ZM1016.67,465.558C1016.74,465.008 1016.93,464.533 1017.22,464.108C1017.49,463.708 1017.82,463.383 1018.23,463.158C1018.64,462.933 1019.05,462.808 1019.51,462.808C1020.02,462.808 1020.5,462.933 1020.91,463.158C1021.32,463.408 1021.66,463.733 1021.92,464.158C1022.19,464.583 1022.31,465.033 1022.33,465.558L1016.67,465.558Z" style="fill:rgb(0,172,213);fill-rule:nonzero;"/>
    </g>
    <g transform="matrix(4.16667,0,0,4.16667,-3293.73,-1431.17)">
        <path d="M1027.88,473.033L1030.61,473.033L1030.61,466.733C1030.61,465.958 1030.73,465.308 1031,464.783C1031.26,464.258 1031.57,463.858 1031.99,463.558C1032.39,463.283 1032.83,463.083 1033.31,463.008C1033.77,462.933 1034.23,462.983 1034.64,463.133L1034.64,460.533C1034.13,460.408 1033.62,460.383 1033.12,460.483C1032.61,460.583 1032.13,460.758 1031.69,461.033C1031.26,461.308 1030.88,461.658 1030.56,462.083L1030.34,460.533L1027.88,460.533L1027.88,473.033Z" style="fill:rgb(0,172,213);fill-rule:nonzero;"/>
    </g>
    <g transform="matrix(4.16667,0,0,4.16667,-3293.73,-1431.17)">
        <path d="M1036.79,473.033L1039.51,473.033L1039.51,467.958L1040.4,467.958L1044.67,473.033L1048.27,473.033L1042.77,466.783L1048.25,460.533L1044.65,460.533L1040.4,465.583L1039.51,465.583L1039.51,455.033L1036.79,455.033L1036.79,473.033Z" style="fill:rgb(0,172,213);fill-rule:nonzero;"/>
    </g>
    <g transform="matrix(4.16667,0,0,4.16667,-3293.73,-1431.17)">
        <path d="M1049.55,469.833C1049.86,471.008 1050.44,471.883 1051.28,472.408C1052.13,472.933 1053.17,473.208 1054.35,473.208C1055.39,473.208 1056.28,473.033 1057.03,472.683C1057.77,472.358 1058.33,471.883 1058.74,471.283C1059.15,470.708 1059.34,470.058 1059.34,469.333C1059.32,468.658 1059.17,468.108 1058.93,467.683C1058.67,467.258 1058.33,466.908 1057.92,466.633C1057.49,466.358 1057.03,466.133 1056.52,465.958C1056.01,465.783 1055.48,465.633 1054.98,465.483C1054.66,465.383 1054.35,465.283 1054.06,465.208C1053.77,465.133 1053.53,465.058 1053.31,464.958C1053.09,464.883 1052.95,464.758 1052.83,464.608C1052.71,464.458 1052.63,464.283 1052.63,464.083C1052.63,463.683 1052.8,463.383 1053.17,463.158C1053.53,462.933 1053.96,462.833 1054.47,462.833C1054.78,462.833 1055.07,462.858 1055.39,462.933C1055.67,463.008 1055.94,463.133 1056.16,463.308C1056.38,463.483 1056.52,463.683 1056.64,463.908L1059.03,463.108C1058.67,462.208 1058.11,461.533 1057.32,461.058C1056.52,460.583 1055.6,460.358 1054.52,460.358C1053.62,460.358 1052.8,460.508 1052.08,460.833C1051.36,461.158 1050.78,461.583 1050.37,462.158C1049.96,462.733 1049.74,463.433 1049.74,464.208C1049.74,464.833 1049.88,465.333 1050.15,465.758C1050.42,466.183 1050.78,466.508 1051.21,466.783C1051.65,467.058 1052.11,467.258 1052.61,467.408C1053.09,467.558 1053.55,467.683 1053.99,467.808C1054.4,467.933 1054.78,468.033 1055.17,468.133C1055.53,468.258 1055.84,468.408 1056.09,468.583C1056.33,468.758 1056.45,469.033 1056.45,469.358C1056.45,469.758 1056.28,470.083 1055.92,470.333C1055.56,470.608 1055.05,470.733 1054.42,470.733C1054.11,470.733 1053.79,470.683 1053.46,470.583C1053.12,470.508 1052.8,470.333 1052.54,470.083C1052.25,469.833 1052.06,469.483 1051.94,469.008L1049.55,469.833Z" style="fill:rgb(0,172,213);fill-rule:nonzero;"/>
    </g>
    <g transform="matrix(4.16667,0,0,4.16667,-3293.73,-1431.17)">
        <path d="M1060.98,460.533L1060.98,463.008L1062.67,463.008L1062.67,468.558C1062.67,469.583 1062.84,470.433 1063.15,471.058C1063.47,471.683 1063.9,472.158 1064.43,472.483C1064.96,472.808 1065.57,473.008 1066.24,473.058C1066.89,473.133 1067.57,473.083 1068.27,472.933L1068.27,470.533C1067.81,470.608 1067.38,470.608 1066.94,470.583C1066.48,470.558 1066.12,470.408 1065.86,470.108C1065.59,469.833 1065.45,469.308 1065.45,468.558L1065.45,463.008L1068.27,463.008L1068.27,460.533L1065.45,460.533L1065.45,457.033L1062.67,457.033L1062.67,460.533L1060.98,460.533Z" style="fill:rgb(0,172,213);fill-rule:nonzero;"/>
    </g>
    <g transform="matrix(4.16667,0,0,4.16667,-3293.73,-1431.17)">
        <path d="M1070.99,473.033L1073.72,473.033L1073.72,460.533L1070.99,460.533L1070.99,473.033ZM1073.6,458.108C1073.94,457.758 1074.11,457.333 1074.11,456.858C1074.11,456.333 1073.94,455.908 1073.6,455.558C1073.26,455.208 1072.85,455.033 1072.37,455.033C1071.86,455.033 1071.45,455.208 1071.12,455.558C1070.78,455.908 1070.61,456.333 1070.61,456.858C1070.61,457.333 1070.78,457.758 1071.12,458.108C1071.45,458.458 1071.86,458.633 1072.37,458.633C1072.85,458.633 1073.26,458.458 1073.6,458.108Z" style="fill:rgb(0,172,213);fill-rule:nonzero;"/>
    </g>
    <g transform="matrix(4.16667,0,0,4.16667,-3293.73,-1431.17)">
        <path d="M1077.32,473.033L1080.04,473.033L1080.04,466.133C1080.04,465.083 1080.26,464.283 1080.69,463.733C1081.13,463.208 1081.76,462.933 1082.6,462.933C1083.42,462.933 1084.02,463.208 1084.43,463.733C1084.82,464.258 1085.01,465.058 1085.01,466.108L1085.01,473.033L1087.74,473.033L1087.74,466.158C1087.74,465.083 1087.98,464.283 1088.44,463.733C1088.9,463.208 1089.55,462.933 1090.39,462.933C1091.21,462.933 1091.84,463.208 1092.27,463.733C1092.68,464.258 1092.9,465.058 1092.9,466.108L1092.9,473.033L1095.65,473.033L1095.65,465.733C1095.65,464.558 1095.46,463.558 1095.07,462.758C1094.69,461.983 1094.15,461.383 1093.46,460.958C1092.76,460.558 1091.91,460.358 1090.97,460.358C1090.13,460.358 1089.35,460.533 1088.63,460.858C1087.91,461.208 1087.33,461.708 1086.92,462.358C1086.51,461.708 1086,461.208 1085.35,460.858C1084.7,460.533 1083.97,460.358 1083.18,460.358C1082.53,460.358 1081.95,460.483 1081.39,460.708C1080.84,460.958 1080.38,461.283 1079.97,461.708L1079.78,460.533L1077.32,460.533L1077.32,473.033Z" style="fill:rgb(0,172,213);fill-rule:nonzero;"/>
    </g>
    <g transform="matrix(4.16667,0,0,4.16667,-3293.73,-1431.17)">
        <path d="M1108.99,460.533L1106.27,460.533L1106.27,467.433C1106.27,468.508 1106.05,469.308 1105.59,469.833C1105.13,470.383 1104.48,470.658 1103.68,470.658C1102.84,470.658 1102.24,470.383 1101.83,469.833C1101.42,469.308 1101.22,468.508 1101.22,467.483L1101.22,460.533L1098.5,460.533L1098.5,467.858C1098.5,469.033 1098.69,470.008 1099.05,470.783C1099.41,471.583 1099.94,472.183 1100.64,472.583C1101.32,473.008 1102.14,473.208 1103.08,473.208C1103.71,473.208 1104.31,473.083 1104.87,472.833C1105.42,472.583 1105.9,472.233 1106.32,471.783L1106.48,473.033L1108.99,473.033L1108.99,460.533Z" style="fill:rgb(0,172,213);fill-rule:nonzero;"/>
    </g>
    <g transform="matrix(4.16667,0,0,4.16667,-3293.73,-1431.17)">
        <rect x="1112.18" y="455.033" width="2.726" height="18" style="fill:rgb(0,172,213);fill-rule:nonzero;"/>
    </g>
    <g transform="matrix(4.16667,0,0,4.16667,-3293.73,-1431.17)">
        <path d="M1127.79,473.033L1127.79,464.708C1127.79,463.433 1127.4,462.408 1126.6,461.583C1125.81,460.758 1124.63,460.358 1123.06,460.358C1121.76,460.358 1120.64,460.658 1119.75,461.283C1118.84,461.908 1118.23,462.758 1117.92,463.858L1120.28,464.758C1120.45,464.108 1120.77,463.608 1121.25,463.283C1121.71,462.958 1122.26,462.808 1122.91,462.808C1123.66,462.808 1124.19,462.958 1124.53,463.283C1124.87,463.608 1125.04,463.983 1125.04,464.383L1125.04,465.358L1121.88,465.708C1120.43,465.883 1119.34,466.308 1118.59,467.008C1117.85,467.733 1117.46,468.608 1117.46,469.658C1117.46,470.358 1117.63,470.958 1117.97,471.483C1118.28,472.008 1118.76,472.433 1119.37,472.708C1119.97,473.008 1120.69,473.158 1121.54,473.158C1122.43,473.158 1123.13,473.008 1123.66,472.733C1124.19,472.458 1124.65,472.033 1125.04,471.508L1125.28,473.033L1127.79,473.033ZM1125.04,467.708C1125.04,468.383 1124.91,468.958 1124.7,469.433C1124.46,469.908 1124.12,470.258 1123.66,470.508C1123.2,470.758 1122.62,470.883 1121.97,470.883C1121.46,470.883 1121.06,470.733 1120.77,470.458C1120.45,470.183 1120.31,469.858 1120.31,469.483C1120.31,469.058 1120.45,468.708 1120.77,468.433C1121.08,468.158 1121.54,467.983 1122.14,467.908L1125.04,467.533L1125.04,467.708Z" style="fill:rgb(0,172,213);fill-rule:nonzero;"/>
    </g>
    <g transform="matrix(4.16667,0,0,4.16667,-3293.73,-1431.17)">
        <path d="M1129.88,460.533L1129.88,463.008L1131.57,463.008L1131.57,468.558C1131.57,469.583 1131.74,470.433 1132.06,471.058C1132.37,471.683 1132.8,472.158 1133.34,472.483C1133.87,472.808 1134.47,473.008 1135.14,473.058C1135.8,473.133 1136.47,473.083 1137.17,472.933L1137.17,470.533C1136.71,470.608 1136.28,470.608 1135.84,470.583C1135.38,470.558 1135.02,470.408 1134.76,470.108C1134.49,469.833 1134.35,469.308 1134.35,468.558L1134.35,463.008L1137.17,463.008L1137.17,460.533L1134.35,460.533L1134.35,457.033L1131.57,457.033L1131.57,460.533L1129.88,460.533Z" style="fill:rgb(0,172,213);fill-rule:nonzero;"/>
    </g>
    <g transform="matrix(4.16667,0,0,4.16667,-3293.73,-1431.17)">
        <path d="M1139.9,473.033L1142.62,473.033L1142.62,460.533L1139.9,460.533L1139.9,473.033ZM1142.5,458.108C1142.84,457.758 1143.01,457.333 1143.01,456.858C1143.01,456.333 1142.84,455.908 1142.5,455.558C1142.16,455.208 1141.75,455.033 1141.27,455.033C1140.77,455.033 1140.36,455.208 1140.02,455.558C1139.68,455.908 1139.51,456.333 1139.51,456.858C1139.51,457.333 1139.68,457.758 1140.02,458.108C1140.36,458.458 1140.77,458.633 1141.27,458.633C1141.75,458.633 1142.16,458.458 1142.5,458.108Z" style="fill:rgb(0,172,213);fill-rule:nonzero;"/>
    </g>
    <g transform="matrix(4.16667,0,0,4.16667,-3293.73,-1431.17)">
        <path d="M1154.76,472.408C1155.7,471.883 1156.45,471.158 1157,470.183C1157.56,469.208 1157.82,468.083 1157.82,466.758C1157.82,465.458 1157.56,464.333 1157,463.358C1156.45,462.408 1155.72,461.658 1154.81,461.133C1153.87,460.608 1152.83,460.358 1151.67,460.358C1150.54,460.358 1149.5,460.608 1148.56,461.133C1147.62,461.658 1146.89,462.408 1146.36,463.383C1145.83,464.358 1145.57,465.483 1145.57,466.808C1145.57,468.108 1145.83,469.233 1146.34,470.183C1146.85,471.158 1147.57,471.883 1148.49,472.408C1149.4,472.933 1150.44,473.208 1151.6,473.208C1152.76,473.208 1153.82,472.933 1154.76,472.408ZM1150.03,470.258C1149.57,469.983 1149.18,469.533 1148.92,468.958C1148.63,468.383 1148.49,467.683 1148.49,466.808C1148.49,465.908 1148.63,465.158 1148.92,464.583C1149.21,464.008 1149.6,463.583 1150.08,463.308C1150.54,463.033 1151.07,462.883 1151.62,462.883C1152.2,462.883 1152.73,463.033 1153.24,463.308C1153.75,463.583 1154.13,464.008 1154.44,464.583C1154.76,465.158 1154.9,465.883 1154.9,466.758C1154.9,467.658 1154.73,468.383 1154.42,468.958C1154.11,469.533 1153.7,469.983 1153.19,470.258C1152.68,470.533 1152.13,470.683 1151.57,470.683C1151.02,470.683 1150.49,470.533 1150.03,470.258Z" style="fill:rgb(0,172,213);fill-rule:nonzero;"/>
    </g>
    <g transform="matrix(4.16667,0,0,4.16667,-3293.73,-1431.17)">
        <path d="M1160.38,473.033L1163.11,473.033L1163.11,466.133C1163.11,465.083 1163.32,464.283 1163.76,463.733C1164.19,463.208 1164.82,462.933 1165.66,462.933C1166.48,462.933 1167.11,463.208 1167.52,463.733C1167.93,464.258 1168.12,465.058 1168.12,466.108L1168.12,473.033L1170.85,473.033L1170.85,465.733C1170.85,464.558 1170.66,463.558 1170.3,462.758C1169.93,461.983 1169.4,461.383 1168.73,460.958C1168.03,460.558 1167.21,460.358 1166.27,460.358C1165.61,460.358 1165.04,460.483 1164.48,460.733C1163.93,460.983 1163.44,461.333 1163.03,461.758L1162.84,460.533L1160.38,460.533L1160.38,473.033Z" style="fill:rgb(0,172,213);fill-rule:nonzero;"/>
    </g>
    <g transform="matrix(1,0,0,1,-26.256,-0.0203233)">
        <path d="M220.53,445.026C213.019,456.975 199.718,464.917 184.562,464.917C178.863,464.917 173.426,463.794 168.458,461.755L123.151,552.448C156.416,583.166 190.76,601.625 212.698,609.146C231.782,615.688 246.943,614.535 258.813,609.955C286.626,599.223 296.53,568.879 296.53,568.879C296.731,568.257 296.833,567.608 296.833,566.955L296.833,474.172L220.53,445.026ZM142.714,415.301L29.055,371.885C39.096,447.841 74.758,504.27 113.716,543.364L157.694,455.332C148.183,447.548 142.112,435.714 142.112,422.463C142.112,420.022 142.318,417.629 142.714,415.301ZM195.746,381.501C213.767,386.409 227.017,402.888 227.017,422.463C227.017,426.303 226.507,430.025 225.551,433.563L296.833,460.791L296.833,88.698L222.448,224.938L195.746,381.501ZM183.316,380.031L207.935,235.685L26.972,350.717C27.13,353.136 27.314,355.536 27.523,357.919L146.617,403.411C153.423,389.882 167.25,380.494 183.316,380.031ZM205.797,222.233L87.376,125.787C58.177,171.391 35.644,226.491 28.771,285.899C26.738,303.468 25.984,320.261 26.342,336.306L205.797,222.233ZM94.311,115.313L214.58,213.265L296.833,62.614L296.833,39.259C296.833,38.669 296.75,38.082 296.585,37.516C292.544,23.595 285.529,13.893 276.521,7.819C263.242,-1.136 245.268,-2.294 224.832,3.906C195.505,12.803 160.645,36.991 128.435,72.19C116.575,85.15 105.066,99.601 94.311,115.313Z" style="fill:rgb(0,84,118);fill-rule:nonzero;"/>
    </g>
    <g transform="matrix(4.16667,0,0,4.16667,-3293.73,-1431.17)">
        <path d="M835.639,444.867C835.639,448.816 832.437,452.018 828.488,452.018C824.539,452.018 821.338,448.816 821.338,444.867C821.338,440.919 824.539,437.717 828.488,437.717C832.437,437.717 835.639,440.919 835.639,444.867Z" style="fill:rgb(237,28,36);fill-rule:nonzero;"/>
    </g>
    <g transform="matrix(1,0,0,1,-26.256,-0.0203233)">
        <path d="M441.296,419.774L333.617,474.041L333.617,566.955C333.617,567.608 333.719,568.257 333.92,568.879C333.92,568.879 343.824,599.223 371.637,609.955C383.507,614.535 398.668,615.688 417.752,609.146C447.891,598.813 501.444,567.836 543.447,512.791L441.68,420.156C441.545,420.033 441.417,419.905 441.296,419.774ZM604.073,337.739L453.226,413.762L550.864,502.639C580.118,460.783 602.255,406.244 604.073,337.739ZM414.093,260.654C412.96,260.746 411.812,260.792 410.654,260.792C387.208,260.792 368.204,241.784 368.204,218.338C368.204,204.235 375.08,191.739 385.662,184.02L333.617,88.692L333.617,460.043L439.038,406.914L414.093,260.654ZM592.615,329.516L442.804,246.065C438.365,251.207 432.712,255.274 426.29,257.819L450.715,401.029L592.615,329.516ZM524.722,99.468L445.747,194.441C450.392,201.247 453.108,209.475 453.108,218.338C453.108,224.441 451.821,230.243 449.502,235.487L604.125,321.619C603.898,310.1 603.102,298.189 601.68,285.899C593.424,214.547 562.58,149.409 524.722,99.468ZM333.617,62.606L396.738,178.221C401.097,176.709 405.78,175.888 410.654,175.888C420.691,175.888 429.915,179.371 437.181,185.192L516.834,89.404C511.979,83.413 507.029,77.668 502.015,72.19C469.805,36.991 434.945,12.803 405.618,3.906C385.182,-2.294 367.208,-1.136 353.929,7.819C344.921,13.893 337.906,23.595 333.864,37.516C333.7,38.082 333.617,38.669 333.617,39.259L333.617,62.606Z" style="fill:rgb(0,84,118);fill-rule:nonzero;"/>
    </g>
    <g transform="matrix(4.16667,0,0,4.16667,-3293.73,-1431.17)">
        <path d="M889.9,395.877C889.9,399.826 886.699,403.027 882.75,403.027C878.801,403.027 875.6,399.826 875.6,395.877C875.6,391.928 878.801,388.727 882.75,388.727C886.699,388.727 889.9,391.928 889.9,395.877Z" style="fill:rgb(237,28,36);fill-rule:nonzero;"/>
    </g>
</svg>
