<?xml version="1.0" encoding="UTF-8" standalone="no"?>
<!DOCTYPE svg PUBLIC "-//W3C//DTD SVG 1.1//EN" "http://www.w3.org/Graphics/SVG/1.1/DTD/svg11.dtd">
<svg width="100%" height="100%" viewBox="0 0 1590 614" version="1.1" xmlns="http://www.w3.org/2000/svg" xmlns:xlink="http://www.w3.org/1999/xlink" xml:space="preserve" xmlns:serif="http://www.serif.com/" style="fill-rule:evenodd;clip-rule:evenodd;stroke-linejoin:round;stroke-miterlimit:2;">
    <g transform="matrix(1,0,0,1,-26.256,-0.0203233)">
        <path d="M220.53,445.026C213.019,456.975 199.718,464.917 184.562,464.917C178.863,464.917 173.426,463.794 168.458,461.755L123.151,552.448C156.416,583.166 190.76,601.625 212.698,609.146C231.782,615.688 246.943,614.535 258.813,609.955C286.626,599.223 296.53,568.879 296.53,568.879C296.731,568.257 296.833,567.608 296.833,566.955L296.833,474.172L220.53,445.026ZM142.714,415.301L29.055,371.885C39.096,447.841 74.758,504.27 113.716,543.364L157.694,455.332C148.183,447.548 142.112,435.714 142.112,422.463C142.112,420.022 142.318,417.629 142.714,415.301ZM195.746,381.501C213.767,386.409 227.017,402.888 227.017,422.463C227.017,426.303 226.507,430.025 225.551,433.563L296.833,460.791L296.833,88.698L222.448,224.938L195.746,381.501ZM183.316,380.031L207.935,235.685L26.972,350.717C27.13,353.136 27.314,355.536 27.523,357.919L146.617,403.411C153.423,389.882 167.25,380.494 183.316,380.031ZM205.797,222.233L87.376,125.787C58.177,171.391 35.644,226.491 28.771,285.899C26.738,303.468 25.984,320.261 26.342,336.306L205.797,222.233ZM94.311,115.313L214.58,213.265L296.833,62.614L296.833,39.259C296.833,38.669 296.75,38.082 296.585,37.516C292.544,23.595 285.529,13.893 276.521,7.819C263.242,-1.136 245.268,-2.294 224.832,3.906C195.505,12.803 160.645,36.991 128.435,72.19C116.575,85.15 105.066,99.601 94.311,115.313Z" style="fill:rgb(0,84,118);fill-rule:nonzero;"/>
    </g>
    <g transform="matrix(4.16667,0,0,4.16667,-405.154,-1223.55)">
        <g transform="matrix(0.96502,0,0,1,8.5967,0)">
            <text x="245.76px" y="363.789px" style="font-family:'AlbertSansRoman-SemiBold', 'Albert Sans';font-size:70px;fill:rgb(0,84,118);">n<tspan x="286.048px 324.956px " y="363.789px 363.789px ">et</tspan></text>
        </g>
        <g transform="matrix(0.96502,0,0,1,12.1315,0)">
            <text x="346.811px" y="363.789px" style="font-family:'AlbertSansRoman-SemiBold', 'Albert Sans';font-size:70px;fill:rgb(0,172,213);">s<tspan x="380.939px 406.458px 425.396px " y="363.789px 363.789px 363.789px ">tim</tspan></text>
        </g>
    </g>
    <g transform="matrix(4.16667,0,0,4.16667,-3293.73,-1431.17)">
        <path d="M835.639,444.867C835.639,448.816 832.437,452.018 828.488,452.018C824.539,452.018 821.338,448.816 821.338,444.867C821.338,440.919 824.539,437.717 828.488,437.717C832.437,437.717 835.639,440.919 835.639,444.867Z" style="fill:rgb(237,28,36);fill-rule:nonzero;"/>
    </g>
    <g transform="matrix(1,0,0,1,-26.256,-0.0203233)">
        <path d="M441.296,419.774L333.617,474.041L333.617,566.955C333.617,567.608 333.719,568.257 333.92,568.879C333.92,568.879 343.824,599.223 371.637,609.955C383.507,614.535 398.668,615.688 417.752,609.146C447.891,598.813 501.444,567.836 543.447,512.791L441.68,420.156C441.545,420.033 441.417,419.905 441.296,419.774ZM604.073,337.739L453.226,413.762L550.864,502.639C580.118,460.783 602.255,406.244 604.073,337.739ZM414.093,260.654C412.96,260.746 411.812,260.792 410.654,260.792C387.208,260.792 368.204,241.784 368.204,218.338C368.204,204.235 375.08,191.739 385.662,184.02L333.617,88.692L333.617,460.043L439.038,406.914L414.093,260.654ZM592.615,329.516L442.804,246.065C438.365,251.207 432.712,255.274 426.29,257.819L450.715,401.029L592.615,329.516ZM524.722,99.468L445.747,194.441C450.392,201.247 453.108,209.475 453.108,218.338C453.108,224.441 451.821,230.243 449.502,235.487L604.125,321.619C603.898,310.1 603.102,298.189 601.68,285.899C593.424,214.547 562.58,149.409 524.722,99.468ZM333.617,62.606L396.738,178.221C401.097,176.709 405.78,175.888 410.654,175.888C420.691,175.888 429.915,179.371 437.181,185.192L516.834,89.404C511.979,83.413 507.029,77.668 502.015,72.19C469.805,36.991 434.945,12.803 405.618,3.906C385.182,-2.294 367.208,-1.136 353.929,7.819C344.921,13.893 337.906,23.595 333.864,37.516C333.7,38.082 333.617,38.669 333.617,39.259L333.617,62.606Z" style="fill:rgb(0,84,118);fill-rule:nonzero;"/>
    </g>
    <g transform="matrix(4.16667,0,0,4.16667,-3293.73,-1431.17)">
        <path d="M889.9,395.877C889.9,399.826 886.699,403.027 882.75,403.027C878.801,403.027 875.6,399.826 875.6,395.877C875.6,391.928 878.801,388.727 882.75,388.727C886.699,388.727 889.9,391.928 889.9,395.877Z" style="fill:rgb(237,28,36);fill-rule:nonzero;"/>
    </g>
    <g transform="matrix(1.01223,0,0,1.01223,1.64822,62.7408)">
        <g transform="matrix(0.96502,0,0,1,22.0415,0)">
            <text x="630.116px" y="365.198px" style="font-family:'AlbertSansRoman-SemiBold', 'Albert Sans';font-size:104.167px;fill:rgb(0,172,213);">I<tspan x="656.811px 716.11px 766.243px 803.563px 831.091px 868.411px 927.606px 964.926px 1024.33px 1054.45px 1087.77px 1149.88px " y="365.198px 365.198px 365.198px 365.198px 365.198px 365.198px 365.198px 365.198px 365.198px 365.198px 365.198px 365.198px ">nstitute for</tspan></text>
        </g>
        <g transform="matrix(0.96502,0,0,1,22.0415,0)">
            <text x="630.116px" y="469.364px" style="font-family:'AlbertSansRoman-SemiBold', 'Albert Sans';font-size:104.167px;fill:rgb(0,172,213);">N<tspan x="704.33px 761.697px 799.14px 877.378px 939.613px 977.889px 1032.62px 1062.87px 1123.43px 1160.88px 1188.53px 1282.64px 1341.95px 1366.48px 1422.26px 1459.7px 1487.35px 1549.59px " y="469.364px 469.364px 469.364px 469.364px 469.364px 469.364px 469.364px 469.364px 469.364px 469.364px 469.364px 469.364px 469.364px 469.364px 469.364px 469.364px 469.364px 469.364px ">etwork Stimulation</tspan></text>
        </g>
    </g>
</svg>
